<?xml version="1.0" encoding="UTF-8"?>
<svg id="Capa_1" xmlns="http://www.w3.org/2000/svg" viewBox="0 0 171.76 169.77">
  <defs>
    <style>
      .cls-1 {
        fill: #ccc;
      }
    </style>
  </defs>
  <path class="cls-1" d="M171.75,84.09c.79,45.21-36.97,84.8-84.06,85.66C40.13,170.62.73,133.48.01,86.46-.75,37.21,38.81.86,84.23.02c49.46-.92,87.55,39.62,87.51,84.07ZM11.54,84.43c-.8,41.34,34.61,74.11,74.56,73.86,40.14-.25,73.29-32.62,73.7-72.22.43-40.7-31.41-73.55-72.56-74.55C46.54,10.52,11.15,43.65,11.54,84.43Z"/>
  <path class="cls-1" d="M85.85,148.04c-34.69.73-64-29.19-64.32-62.48-.33-34.97,30.24-64.9,65.41-63.94,34.29.94,62.93,27.96,62.68,63.92-.24,34.57-28.66,62.57-63.77,62.5ZM71.02,54.26c-5.09,0-9.88-.06-14.66.06-.73.02-2.01.81-2.06,1.33-.22,2.38-.1,4.79-.1,7.43,1.68,0,3.01,0,4.34,0,4.19.01,5.76,1.43,5.77,5.51.03,11.02,0,22.03-.05,33.05-.02,3.27-1.69,4.87-4.99,4.94-1.64.03-3.27,0-4.89,0v10.12h16.62c0,2.85,0,5.51,0,8.17,0,5.9,0,5.83,5.81,5.81,1.88,0,2.48-.58,2.42-2.45-.13-3.75-.04-7.51-.04-11.31h7.03v13.72c1.89,0,3.47-.09,5.04.02,1.92.14,2.69-.41,2.57-2.54-.21-3.72-.06-7.47-.06-11.56,11.43,1.14,20.93-1.13,24.5-13.05,1.05-3.5.68-7.74-.13-11.4-1.04-4.68-4.68-7.74-9.36-9.76,5.64-4.36,7.29-9.88,5.24-16.11-3.13-9.51-10.6-12.57-20.25-12,0-4.1.05-7.86-.05-11.61-.02-.66-.6-1.82-1-1.86-2.12-.19-4.27-.09-6.57-.09,0,3.26,0,6.11,0,8.96,0,4.8,0,4.73-4.9,4.63-1.72-.03-2.17-.68-2.08-2.26.11-1.84.01-3.7.01-5.55,0-5.93,0-5.85-6.06-5.86-1.75,0-2.16.64-2.13,2.2.07,3.68.02,7.36.02,11.43Z"/>
  <path class="cls-1" d="M79.31,106.59v-18.46c5.1,0,10.15-.43,15.1.12,5.33.59,8.33,5.14,7.79,10.5-.46,4.6-4.35,7.83-9.48,7.84-4.36.01-8.72,0-13.41,0Z"/>
  <path class="cls-1" d="M79.19,79.75c0-5.19-.04-10.29.07-15.38,0-.44,1.03-1.22,1.61-1.24,3.35-.11,6.71-.12,10.06-.01,4.16.14,7.31,3.14,7.71,7.16.42,4.22-2.37,8.93-6.25,9.36-4.27.48-8.63.11-13.19.11Z"/>
</svg>