<?xml version="1.0" encoding="UTF-8"?>
<svg id="Capa_1" xmlns="http://www.w3.org/2000/svg" viewBox="0 0 273.08 280.9">
  <defs>
    <style>
      .cls-1 {
        fill: #ccc;
      }
    </style>
  </defs>
  <path class="cls-1" d="M122.84,280.9c-3.04-1.31-5.97-3.32-9.14-3.83C19.35,261.89-30.51,152.49,20.17,68.52,63.27-2.87,143.57-19.45,208.88,23.37c32.87,21.55,54.06,54.06,60.73,94.4.53,3.22,2.28,6.23,3.47,9.34v35.08c-1.77,3.13-4.29,6.06-5.21,9.43-15.99,58.75-52.39,95.34-112.97,106.01-2.74.48-5.28,2.16-7.91,3.27h-24.15ZM135.25,265.51c68.99,1.77,121.99-57.97,122.77-125.12.77-66.58-58.1-126.14-121.63-126.61-64.3-.48-124.54,61.62-122.92,126.04,1.72,68.34,49.65,125.3,121.78,125.69Z"/>
  <path class="cls-1" d="M219.99,114.58c-2.16,2.34-3.9,4.91-6.25,6.66-21.29,15.94-42.59,31.86-64.16,47.39-2.49,1.8-6.7,1.18-10.12,1.68,1.17-3.42,1.29-8.21,3.67-10.04,21.81-16.78,43.95-33.12,66.18-49.32,2.07-1.51,5.47-1.52,8.24-1.46.74.02,1.43,2.87,2.44,5.08Z"/>
  <path class="cls-1" d="M61.2,189.54c-2.65-2.41-5.31-4.83-7.96-7.24,3.12-1.83,6.19-5.17,9.35-5.26,18.67-.51,37.36-.57,56.03-.01,4.05.12,8.01,3.42,12.01,5.25-4.01,2.22-7.98,4.53-12.07,6.61-1.13.57-2.6.46-3.91.66-17.82,0-35.63,0-53.45-.01Z"/>
  <path class="cls-1" d="M180.48,176.89c10.22-.02,20.48-.49,30.64.28,2.87.22,5.46,4.05,8.18,6.23-2.6,1.82-5.16,5.18-7.79,5.23-21.77.42-43.55.41-65.32-.04-2.54-.05-5-3.57-7.5-5.49,2.82-2.06,5.53-5.72,8.47-5.91,11.07-.71,22.2-.28,33.31-.3Z"/>
  <path class="cls-1" d="M178.62,102.75c-10.28.01-20.58.44-30.81-.24-3.12-.21-6.05-3.45-9.07-5.3,2.76-2.1,5.48-5.95,8.29-6.01,21.43-.51,42.89-.46,64.33-.04,2.67.05,5.28,3.31,7.92,5.08-2.83,2.17-5.54,5.99-8.51,6.2-10.67.76-21.43.3-32.15.31Z"/>
  <path class="cls-1" d="M91.89,102.77c-10.21,0-20.45.36-30.63-.25-2.73-.17-5.28-3.33-7.92-5.12,2.7-2.17,5.35-6.14,8.1-6.21,20.41-.53,40.85-.47,61.27-.04,2.69.06,5.31,3.32,7.96,5.1-2.72,2.18-5.31,6.02-8.17,6.23-10.16.77-20.4.3-30.62.29Z"/>
  <path class="cls-1" d="M86.63,134.26c8.86,0,17.76-.43,26.57.27,2.58.2,4.92,3.6,7.37,5.53-2.44,1.97-4.83,5.58-7.32,5.64-17.71.47-35.45.46-53.16-.09-2.31-.07-4.51-4.05-6.76-6.21,2.24-1.7,4.4-4.7,6.74-4.85,8.82-.58,17.71-.23,26.57-.23,0-.02,0-.03,0-.05Z"/>
</svg>