<?xml version="1.0" encoding="UTF-8"?>
<svg id="Capa_1" data-name="Capa 1" xmlns="http://www.w3.org/2000/svg" viewBox="0 0 481 466">
  <defs>
    <style>
      .cls-1 {
        fill: #1754cf;
      }
    </style>
  </defs>
  <path class="cls-1" d="M398.21,360.92c.78,4.8-15.25,3.15-18.82,3.51-15.04.36-31.42-2.81-41.22-15.23-5.8-6.92-9.39-15.52-13.03-23.88-8.76-20.22-17.48-40.52-26.43-60.75-2.49-5.61-5.32-11.68-10.59-15.01-7-4.62-17.72-3.29-26.19-3.5-6.93.12-15.47-.6-20.37,1.82-6.48,2.85-6.7,11.15-6.65,17.57.01,20.13-.03,40.24.01,60.38-.4,14.18,2.73,23.56,13.9,32.12,1.35,1.37,1.96,2.43,1.53,3.26-2.84,2.74-9.24,2.17-13.32,2.42-16.07-.52-32.7,1.19-48.62-.91-9.52-1.87,7.17-11.54,8.25-17.75,2.1-5.01,2.48-10.68,2.65-16.1.18-13.46.03-26.88.06-40.24.65-13.29-5.69-18.29-18.88-17.57-9.29.26-20.33-1.55-27.53,5.63-4.14,4-6.41,10.64-8.93,16.85-4.22,10.54-8.54,21.09-12.71,31.67-6.24,15.12-5.64,24.11,7.69,33.96,9.37,8.02-38.53,3.87-42.49,4.84-27.53-.36-.32-10.67,5.71-20.49,8.55-11.19,13.74-24.62,19.78-37.28,20.94-48,40.63-96.47,61.09-144.7,2.59-8.36,10.25-18.44,8.52-27.06-4.21-6.89-15.96-3.67-24.09-4.47-21-.41-21.37,1.71-37.94,12.28-5.55,2.33-14.67,4.58-18.95-.77-2.3-5.3.79-10.82.82-18.16.15-2.98.13-5.98-.05-8.95-1.08-12.66-7.43-23.97,12.35-20.99,7.85,1.11,14.29,5.85,21.58,8.55,11.25,3.83,25.2,1.8,37.31,2.3,15.34.85,26.53-1.03,31.7-16.73,5.07-12.77,10.06-25.71,15.08-38.47,1.43-3.65,4.26-11.62,7.35-11.88,2.77-.61,6.22,7.57,7.7,11.21,4.42,10.32,8.96,20.7,13.47,31.01,3.16,6.88,6.01,15.1,11.11,19.61,6.47,6.02,15.95,5.23,24.35,5.42,7.54.15,15.13.62,22.55,1.94,50.41,8.16,75.44,54.09,53.96,100.63-12.2,25.75-35.21,26.17-36.92,37.94-.43,7.47,5.06,15.09,7.66,22.06,7.46,17.03,14.65,34.17,22.5,51.15,5.69,11.92,11.75,24.38,22.14,32.89,4.13,3.58,10.17,5.97,12.85,9.81l.03.07ZM318.99,218.01c4.62,1.37,10.08-3.68,13.01-7.43,11.07-13.29,12.73-39.19,5.86-54.89-7.18-16.36-25.71-24.34-42.87-25-4.55-.33-8.95-.23-11.58,1.06-5.5,2.63-2.48,9.47-.61,13.89,9.61,21.42,19.05,42.9,28.78,64.28,1.6,3.27,3.98,7.12,7.28,8.05l.13.04ZM236.3,134.86c-2.11,1.8-2.6,6.73-2.73,9.98-.11,23.35-.08,46.67,0,69.93-.03,15.44,10.38,14.95,23.28,14.81,7.17-.57,25.31,2.78,22.57-8.32-.46-2.21-1.6-4.89-2.62-7.15-9.94-22.33-19.54-44.77-29.59-67.13-1.57-3.36-6.38-14.81-10.83-12.17l-.07.06ZM198,255.34c5.23-5.63,3.11-15.72,3.56-23.79,0-10.91,0-21.78,0-32.71,0-4.5,0-9.01,0-13.52-.39-10.19,2.01-33.41-7.03-10.82-9.66,22.8-19.22,45.36-28.81,67.97-1.63,4.21-4.69,10.29-1.2,13.87,4.63,3.61,11.57,2.26,18.8,2.57,4.87.07,11.54-.3,14.57-3.46l.11-.11ZM229.11,106.78c.87-1.66-.74-4.61-2.13-5.66-1.91-.91-3.39,3.41-3.17,4.8.36,2.17,3.98,2.36,5.22.98l.09-.12Z"/>
  <path class="cls-1" d="M437.52,98.41c12.08,17.5,21.48,36.23,29.19,55.85,10.96,27.89,15.44,56.75,14.03,86.31-3.16,66.36-29.14,122.61-82.06,166.91-23.43,19.62-48.67,36.01-78.42,45.52-48.3,15.45-97.23,17.7-146.05,3.66-19.4-5.58-37.73-14.74-56.24-22.89-5.87-2.58-10.77-7.16-16.12-10.82-20.57-14.81-39.28-31.41-54.61-51.32C17,332.36,1.9,288.14.14,239.65c-1.49-41.08,8.51-79.52,28.23-116.09,25.79-47.81,65.52-80.47,115.82-103.47C179.59,3.9,216.48-1.39,254.89.3c26.05,1.15,51.61,5.99,75.45,16.29,42.9,18.53,79.5,44.95,107.18,81.82ZM32.67,231.58c-1.01,115.22,95.23,202.42,207.29,202.63,110.04.21,205.89-83.31,208.33-197.07,2.4-112.18-88.68-202.97-204.16-204.77-119.61-1.87-211.31,90.23-211.46,199.21Z"/>
</svg>