<?xml version="1.0" encoding="UTF-8"?>
<svg id="Capa_1" xmlns="http://www.w3.org/2000/svg" viewBox="0 0 130.18 163">
  <defs>
    <style>
      .cls-1 {
        fill: #ccc;
      }
    </style>
  </defs>
  <path class="cls-1" d="M100.02,125.79c0-1.86,0-3.45,0-5.05.06-17.68.47-35.36-.01-53.02-.17-6.18,3.64-8.94,9.1-12.03,0,3.68,0,6.88,0,10.07-.01,23.17.07,46.35-.07,69.52-.1,17.15-2.08,19.07-21.95,19.56-16.85.42-33.72.16-50.59.2-1.88,0-3.76,0-5.91,0-.32,2.48-.61,4.63-1.04,7.96-10.13-8.02-19.53-15.45-29.55-23.39,9.8-7.68,19.37-15.19,29.87-23.42.23,3.93.39,6.66.56,9.59h69.6ZM62.47,136.67c-3.83.9-7.02,1.47-9.99,2.51-.49.17-.43,3.31.07,3.47,3.02.94,6.23,1.42,9.92,2.15v-8.13ZM67.8,144.97c3.87-.93,7.05-1.53,10.03-2.56.43-.15.29-3.24-.26-3.42-2.98-.94-6.18-1.39-9.77-2.09v8.07Z"/>
  <path class="cls-1" d="M100.13,12.12V0c10.59,8.3,20.09,15.74,30.06,23.56-9.94,7.8-19.45,15.27-29.98,23.53v-11.55H29.84c0,1.73,0,3.32,0,4.91.02,17.23-.28,34.48.25,51.7.18,5.85-3.57,8.32-8.7,11.38-.2-1.55-.42-2.51-.43-3.48-.13-22.73-.34-45.46-.33-68.19,0-15.82,2.47-18.23,20.77-18.9,17.2-.63,34.43-.58,51.64-.83,2.06-.03,4.11,0,7.08,0ZM64.79,26.11s0-.07,0-.1c2.41,0,4.86.24,7.2-.11.99-.15,2.35-1.5,2.39-2.35.03-.7-1.57-2.04-2.53-2.1-4.29-.28-8.62-.36-12.9-.13-1.06.06-2.02,1.54-3.03,2.37,1.07.81,2,2.04,3.23,2.32,1.77.4,3.76.1,5.65.1Z"/>
  <path class="cls-1" d="M38.77,88.92c-5.37-8.32-3.91-18.17,3.32-25.32,9.22-9.13,22.12-11.4,38.95-6.16-14.33,10.68-28.13,20.96-42.26,31.48Z"/>
  <path class="cls-1" d="M83.73,75.35c-5.55,4.28-11.05,8.61-16.66,12.83-3.95,2.97-8.36,5.55-11.99,8.77-3.14,2.78-5.63,2.93-8.64.25-.72-.64-1.58-1.15-2.33-1.77-4.52-3.74-4.19-4.97.85-8.12,5.55-3.47,10.72-7.39,16.14-11.01,1.27-.85,2.9-1.75,4.4-1.81,5.88-.21,11.77-.09,17.65-.09l.57.94Z"/>
  <path class="cls-1" d="M54.58,100.65c6.04-4.64,11.44-9.14,17.34-13.09,1.58-1.05,4.69-.52,7.11-.55,5.34-.06,10.68-.02,16.13-.02-3.53,12.78-25.29,20.18-40.58,13.65Z"/>
</svg>